<?xml version="1.0" encoding="utf-8"?>
<!-- Generator: Adobe Illustrator 26.0.3, SVG Export Plug-In . SVG Version: 6.00 Build 0)  -->
<svg version="1.1" id="Layer_1" xmlns="http://www.w3.org/2000/svg" xmlns:xlink="http://www.w3.org/1999/xlink" x="0px" y="0px"
	 viewBox="0 0 131.9 93.3" style="enable-background:new 0 0 131.9 93.3;" xml:space="preserve">
<style type="text/css">
	.st0{fill:#FFFFFF;}
	.st1{fill:#231F20;stroke:#231F20;stroke-width:0.3545;}
	.st2{fill:#E31937;}
</style>
<g>
	<path class="st0" d="M112.1,7.6c0.7,0,1.4,0.2,2,0.5c0.7,0.4,1.2,0.9,1.6,1.5c0.4,0.7,0.6,1.3,0.6,2.1c0,0.7-0.2,1.4-0.6,2.1
		c-0.4,0.7-0.9,1.2-1.5,1.5c-0.7,0.4-1.3,0.5-2.1,0.5c-0.7,0-1.4-0.2-2.1-0.5c-0.7-0.4-1.2-0.9-1.5-1.5c-0.4-0.7-0.6-1.3-0.6-2.1
		c0-0.7,0.2-1.4,0.6-2.1c0.4-0.7,0.9-1.2,1.6-1.5C110.7,7.8,111.4,7.6,112.1,7.6z M112.1,8.3c-0.6,0-1.2,0.2-1.7,0.4
		c-0.6,0.3-1,0.7-1.3,1.3c-0.3,0.6-0.5,1.1-0.5,1.7c0,0.6,0.2,1.2,0.5,1.7c0.3,0.5,0.7,1,1.3,1.3c0.6,0.3,1.1,0.5,1.7,0.5
		c0.6,0,1.2-0.2,1.7-0.5c0.6-0.3,1-0.7,1.3-1.3c0.3-0.5,0.5-1.1,0.5-1.7c0-0.6-0.2-1.2-0.5-1.7c-0.3-0.6-0.7-1-1.3-1.3
		C113.2,8.5,112.6,8.3,112.1,8.3z M110.2,14.1V9.6h1.5c0.5,0,0.9,0,1.1,0.1c0.2,0.1,0.4,0.2,0.6,0.4c0.1,0.2,0.2,0.4,0.2,0.7
		c0,0.3-0.1,0.6-0.3,0.8c-0.2,0.2-0.5,0.4-0.9,0.4c0.2,0.1,0.3,0.1,0.4,0.2c0.2,0.2,0.4,0.5,0.7,0.9l0.5,0.9h-0.9l-0.4-0.7
		c-0.3-0.5-0.6-0.9-0.7-1c-0.1-0.1-0.3-0.2-0.6-0.2H111v1.9H110.2z M111,11.6h0.9c0.4,0,0.7-0.1,0.9-0.2c0.2-0.1,0.2-0.3,0.2-0.5
		c0-0.1,0-0.2-0.1-0.4c-0.1-0.1-0.2-0.2-0.3-0.2c-0.1-0.1-0.4-0.1-0.7-0.1H111V11.6z"/>
	<path class="st0" d="M108,16.9c0-0.1,0-0.1,0-0.2C108.9,4.9,95.8,5.1,95.8,5.1L38,5.2l0,5.3C16.5,17,3.2,31.2,3.2,47.4
		c0,22.5,28.1,40.7,62.7,40.7c34.6,0,62.7-18.2,62.7-40.7C128.6,34.3,121.5,24.3,108,16.9z"/>
	<path class="st1" d="M43,11.6C20.7,17.1,6.7,31,6.7,47c0,20.9,26.5,37.9,59.2,37.9c32.7,0,59.2-17,59.2-37.9
		c0-12.6-7.1-22.2-20.7-29.1c-0.4,1.5-0.7,2.5-1.4,3.5c4.7,3.3,9.7,6.3,9.6,14.9C112.4,49.8,91.6,61,65.9,61
		c-25.7,0-46.2-10.9-46.6-24.4C19,27.2,29.4,20.3,43.1,15.4"/>
	<g>
		<path class="st0" d="M22.8,52.6l-3.1,2.2l1.2,3.7l-3.1-2.3l-3.1,2.3l1.2-3.7l-3.1-2.2h3.9l1.2-3.6l1.2,3.6H22.8z"/>
	</g>
	<g>
		<path class="st0" d="M118.8,53l-3.1,2.3l1.2,3.7l-3.1-2.3l-3.1,2.3l1.2-3.7l-3.1-2.3l3.9,0l1.2-3.6l1.2,3.6L118.8,53z"/>
	</g>
	<path class="st2" d="M61.9,7.4v8.8h-3.4v23.3c0,2.2-0.1,4.7-1.8,6.8c-2.6,3.4-7.3,3.4-11.5,3.4h-7.8c-2.6,0-4.9-0.2-7.8-1.2
		c-3.5-1.2-4.1-5.7-4.3-8.5l0.1-6.4l12.6,0V41h6.3V16.2h-3.6V7.4H61.9z"/>
	<path class="st2" d="M64.9,7.4h26.1c4.3,0,9.6,0,12.3,2.7c1.8,1.8,2,4.4,2,7.4c0,6.4-1,9.4-8.1,10.4c7.2,1.6,8.1,4.2,8.1,9.3
		c0,5.9-0.5,8.6-2.5,10.4c-2.6,2.3-6.9,2.3-11.6,2.3H64.9V41h3.5V16.2h-3.5V7.4z M82.6,16.2v8H91v-8H82.6z M82.6,32v9H91v-9H82.6z"
		/>
	<path class="st2" d="M59.6,24.2h7.7V32h-7.7V24.2z"/>
	<g>
		<path class="st0" d="M26.4,55c2.7,1.4,5.5,2.7,8.2,3.8c0,1.1,0,2.3,0,3.4c-0.6-0.2-1.2-0.5-1.7-0.7c0.4,2.2,0.7,4.5,1.1,6.7
			c0.2,1.4,0.2,1.9,0.4,3.6c0.1-1.4,0.2-2,0.7-3.6c0.8-2.8,1.6-5.5,2.3-8.3c1.7,0.6,3.3,1.2,5,1.7c0.7,3.2,1.5,6.4,2.2,9.6
			c0.4,1.9,0.5,2.3,0.8,4c0.2-1.8,0.2-2.2,0.4-3.3c0.4-1.9,0.7-3.9,1.1-5.8c-0.7-0.2-1.3-0.3-2-0.5c0-1.1,0-2.3,0-3.4
			c2.8,0.8,5.7,1.4,8.6,1.8c0,1.1,0,2.3,0,3.4c-0.5-0.1-1-0.2-1.4-0.2c-0.9,4.1-1.8,8.3-2.7,12.4c-2.4-0.5-4.8-1.1-7.2-1.8
			c-0.6-2.8-1.3-5.5-1.9-8.3c-0.2-1-0.3-1.3-0.4-2.3c-0.2,0.9-0.3,1.3-0.6,2.3c-0.6,2.3-1.2,4.5-1.8,6.7c-2.4-0.9-4.7-1.8-7-2.9
			c-0.9-4.7-1.8-9.4-2.7-14.2c-0.4-0.2-0.9-0.4-1.3-0.7C26.4,57.2,26.4,56.1,26.4,55z"/>
		<path class="st0" d="M55.4,64.3c5,0.7,10.1,0.9,15.2,0.6c0,1.8,0,3.5,0,5.3c-1.6,0.1-3.3,0.1-4.9,0.1c0-0.6,0-1.3,0-1.9
			c-1,0-2.1,0-3.1-0.1c0,1,0,2.1,0,3.1c1.5,0.1,2.9,0.1,4.4,0.1c0,1,0,2,0,3c-1.5,0-2.9,0-4.4-0.1c0,1.1,0,2.3,0,3.4
			c1,0,2.1,0.1,3.1,0.1c0-0.7,0-1.4,0-2.1c1.8,0,3.5,0,5.3-0.1c0,1.8,0,3.7,0,5.5c-5.2,0.3-10.4,0.1-15.5-0.6c0-1.1,0-2.3,0-3.4
			c0.5,0.1,0.9,0.1,1.4,0.2c0-3.2,0-6.3,0-9.5c-0.5-0.1-0.9-0.1-1.4-0.2C55.4,66.6,55.4,65.5,55.4,64.3z"/>
		<path class="st0" d="M73.2,64.7c2.9-0.3,5.7-0.7,8.6-1.2c0,1.1,0,2.3,0,3.4c-0.5,0.1-0.9,0.2-1.4,0.3c0,3.2,0,6.3,0,9.5
			c0.9-0.2,1.7-0.3,2.6-0.5c0-1,0-1.9,0-2.9c1.8-0.4,3.6-0.8,5.4-1.3c0,2.1,0,4.2,0,6.3c-5,1.4-10.1,2.4-15.2,2.8c0-1.1,0-2.3,0-3.4
			c0.5,0,0.9-0.1,1.4-0.1c0-3.2,0-6.3,0-9.5c-0.5,0-0.9,0.1-1.4,0.1C73.2,67,73.2,65.9,73.2,64.7z"/>
		<path class="st0" d="M90.1,61.4c3.6-1.1,7.1-2.4,10.6-4c1.1-0.5,2.3-1.1,3.2-1.1c1.9-0.2,1.9,1.5,1.9,2.9c0,2.5,0,5.1,0,7.6
			c0,1,0,2-0.5,3c-0.9,2.1-2.8,3.1-4.5,3.8c-3.5,1.6-7.1,2.9-10.7,4c0-1.1,0-2.3,0-3.4c0.4-0.1,0.9-0.3,1.3-0.4c0-3.2,0-6.3,0-9.5
			c-0.4,0.1-0.9,0.3-1.3,0.4C90.1,63.7,90.1,62.6,90.1,61.4z M100.2,61.1c-1,0.5-2.1,0.9-3.1,1.3c0,3.2,0,6.3,0,9.5
			c1-0.4,2.1-0.8,3.1-1.3C100.2,67.4,100.2,64.2,100.2,61.1z"/>
	</g>
</g>
</svg>
